<svg xmlns="http://www.w3.org/2000/svg" viewBox="0 0 600 280" role="img"><title>Lat pulldown bilateral ke depan dada</title><desc>Ilustrasi gerakan dan posisi kamera. Kamera samping menyerong. Satu orang; sendi harus terlihat.</desc><metadata>Original artwork by Gymbro contributors. License: Creative Commons Attribution 4.0 International (CC-BY-4.0). https://creativecommons.org/licenses/by/4.0/ Source: scripts/generate-exercise-guides.mjs. Attribution: Gymbro contributors, Gymbro exercise guides, CC-BY-4.0. Illustrative guide; not model accuracy evidence.</metadata><rect width="600" height="280" rx="16" fill="#edf5ff"/><g><path d="M270 18V213M249 213H287" stroke="#91a0b4" stroke-width="7" fill="none"/><rect x="253" y="166" width="25" height="32" rx="3" fill="#c3d0e0"/><circle cx="270" cy="20" r="7" fill="#63708a"/><path d="M107 155H159M128 155V213" stroke="#91a0b4" stroke-width="6" fill="none"/><line x1="140" y1="82" x2="145" y2="149" stroke="#1268c8" stroke-width="13" stroke-linecap="round"></line><line x1="140" y1="82" x2="140" y2="48" stroke="#1268c8" stroke-width="8" stroke-linecap="round"></line><line x1="140" y1="48" x2="145" y2="20" stroke="#1268c8" stroke-width="8" stroke-linecap="round"></line><line x1="140" y1="82" x2="150" y2="48" stroke="#5495d7" stroke-width="8" stroke-linecap="round"></line><line x1="150" y1="48" x2="157" y2="20" stroke="#5495d7" stroke-width="8" stroke-linecap="round"></line><line x1="145" y1="149" x2="200" y2="149" stroke="#5495d7" stroke-width="8" stroke-linecap="round"></line><line x1="200" y1="149" x2="205" y2="212" stroke="#5495d7" stroke-width="8" stroke-linecap="round"></line><line x1="145" y1="149" x2="189" y2="152" stroke="#5495d7" stroke-width="8" stroke-linecap="round"></line><line x1="189" y1="152" x2="194" y2="212" stroke="#5495d7" stroke-width="8" stroke-linecap="round"></line><line x1="140" y1="69" x2="140" y2="82" stroke="#15233d" stroke-width="6" stroke-linecap="round"></line><circle data-joint="head" cx="140" cy="55" r="15" fill="#15233d"></circle><circle data-joint="hand" cx="145" cy="20" r="4" fill="#f7ad45"></circle><circle data-joint="hand2" cx="157" cy="20" r="4" fill="#f7ad45"></circle><circle data-joint="knee" cx="200" cy="149" r="4" fill="#f7ad45"></circle><circle data-joint="elbow" cx="140" cy="48" r="4" fill="#f7ad45"></circle><line x1="270" y1="20" x2="151" y2="20" stroke="#63708a" stroke-width="2" stroke-linecap="round"></line><line x1="145" y1="20" x2="157" y2="20" stroke="#15233d" stroke-width="5" stroke-linecap="round"></line><text x="150" y="245" text-anchor="middle" font-family="sans-serif" font-size="16">Pose awal</text></g><g transform="translate(300 0)"><path d="M270 18V213M249 213H287" stroke="#91a0b4" stroke-width="7" fill="none"/><rect x="253" y="166" width="25" height="32" rx="3" fill="#c3d0e0"/><circle cx="270" cy="20" r="7" fill="#63708a"/><path d="M107 155H159M128 155V213" stroke="#91a0b4" stroke-width="6" fill="none"/><line x1="140" y1="82" x2="145" y2="149" stroke="#1268c8" stroke-width="13" stroke-linecap="round"></line><line x1="140" y1="82" x2="123" y2="128" stroke="#1268c8" stroke-width="8" stroke-linecap="round"></line><line x1="123" y1="128" x2="166" y2="108" stroke="#1268c8" stroke-width="8" stroke-linecap="round"></line><line x1="140" y1="82" x2="135" y2="128" stroke="#5495d7" stroke-width="8" stroke-linecap="round"></line><line x1="135" y1="128" x2="178" y2="108" stroke="#5495d7" stroke-width="8" stroke-linecap="round"></line><line x1="145" y1="149" x2="200" y2="149" stroke="#5495d7" stroke-width="8" stroke-linecap="round"></line><line x1="200" y1="149" x2="205" y2="212" stroke="#5495d7" stroke-width="8" stroke-linecap="round"></line><line x1="145" y1="149" x2="189" y2="152" stroke="#5495d7" stroke-width="8" stroke-linecap="round"></line><line x1="189" y1="152" x2="194" y2="212" stroke="#5495d7" stroke-width="8" stroke-linecap="round"></line><line x1="140" y1="69" x2="140" y2="82" stroke="#15233d" stroke-width="6" stroke-linecap="round"></line><circle data-joint="head" cx="140" cy="55" r="15" fill="#15233d"></circle><circle data-joint="hand" cx="166" cy="108" r="4" fill="#f7ad45"></circle><circle data-joint="hand2" cx="178" cy="108" r="4" fill="#f7ad45"></circle><circle data-joint="knee" cx="200" cy="149" r="4" fill="#f7ad45"></circle><circle data-joint="elbow" cx="123" cy="128" r="4" fill="#f7ad45"></circle><line x1="270" y1="20" x2="172" y2="108" stroke="#63708a" stroke-width="2" stroke-linecap="round"></line><line x1="166" y1="108" x2="178" y2="108" stroke="#15233d" stroke-width="5" stroke-linecap="round"></line><text x="150" y="245" text-anchor="middle" font-family="sans-serif" font-size="16">Pose akhir fase</text></g><text x="300" y="268" text-anchor="middle" font-family="sans-serif" font-size="12">Kamera samping menyerong · kembali ke pose awal untuk satu rep</text></svg>
